<svg width="146" height="21" viewBox="0 0 146 21" fill="none" xmlns="http://www.w3.org/2000/svg">
<path d="M142.923 9.99988H136.403C136.51 10.5866 136.77 11.0666 137.183 11.4399C137.61 11.7999 138.21 11.9799 138.983 11.9799C139.543 11.9799 140.07 11.8732 140.563 11.6599C141.056 11.4332 141.45 11.1199 141.743 10.7199C142.636 11.1599 143.823 11.6332 145.303 12.1399C144.89 13.0732 144.136 13.8199 143.043 14.3799C141.963 14.9265 140.55 15.1999 138.803 15.1999C136.536 15.1999 134.856 14.6799 133.763 13.6399C132.683 12.5865 132.143 11.2066 132.143 9.49988C132.143 7.83322 132.683 6.47988 133.763 5.43988C134.843 4.39988 136.523 3.87988 138.803 3.87988C140.163 3.87988 141.343 4.10655 142.343 4.55988C143.343 5.01322 144.11 5.64655 144.643 6.45988C145.176 7.25988 145.443 8.17988 145.443 9.21988C145.443 9.56655 145.43 9.82655 145.403 9.99988H142.923ZM139.083 6.89988C138.416 6.89988 137.87 7.02655 137.443 7.27988C137.016 7.53322 136.716 7.87988 136.543 8.31988H141.263C141.103 7.89322 140.843 7.55322 140.483 7.29988C140.123 7.03322 139.656 6.89988 139.083 6.89988Z" fill="#2400FF"/>
<path d="M126.9 4.07988H130.74C130.673 6.26655 130.64 9.37322 130.64 13.3999C130.64 14.9865 130.32 16.2865 129.68 17.2999C129.053 18.3132 128.22 19.0466 127.18 19.4999C126.14 19.9666 124.98 20.1999 123.7 20.1999C122.433 20.1999 121.3 20.0132 120.3 19.6399C119.3 19.2799 118.54 18.7932 118.02 18.1799L118.92 15.1199C119.64 15.5332 120.32 15.8266 120.96 15.9999C121.6 16.1866 122.267 16.2799 122.96 16.2799C125.227 16.2799 126.36 15.3199 126.36 13.3999C126.36 13.1199 126.367 12.9199 126.38 12.7999C126.38 12.7199 126.38 12.6132 126.38 12.4799C126.393 12.3465 126.393 12.1732 126.38 11.9599C125.7 13.8532 124.26 14.7999 122.06 14.7999C121.167 14.7999 120.367 14.5599 119.66 14.0799C118.967 13.5999 118.427 12.9532 118.04 12.1399C117.653 11.3132 117.46 10.4066 117.46 9.41988C117.46 8.40655 117.653 7.47988 118.04 6.63988C118.427 5.78655 118.967 5.11322 119.66 4.61988C120.353 4.12655 121.133 3.87988 122 3.87988C124.253 3.87988 125.72 4.67322 126.4 6.25988L126.9 4.07988ZM124.14 11.5999C124.447 11.5999 124.767 11.5332 125.1 11.3999C125.433 11.2532 125.72 11.0265 125.96 10.7199C126.2 10.3999 126.32 10.0066 126.32 9.53988C126.32 8.71322 126.133 8.12655 125.76 7.77988C125.387 7.41988 124.833 7.23988 124.1 7.23988C123.46 7.23988 122.953 7.45322 122.58 7.87988C122.207 8.30655 122.02 8.85988 122.02 9.53988C122.02 10.1532 122.22 10.6532 122.62 11.0399C123.033 11.4132 123.54 11.5999 124.14 11.5999Z" fill="#2400FF"/>
<path d="M112.159 7.04002C112.719 5.02669 114.112 4.02002 116.339 4.02002C116.725 4.02002 117.099 4.04669 117.459 4.10002L116.819 8.58002C115.859 8.22002 115.072 8.04002 114.459 8.04002C113.699 8.04002 113.139 8.26669 112.779 8.72002C112.419 9.17335 112.239 9.78002 112.239 10.54V10.52L112.219 11.84C112.219 12.7867 112.245 13.84 112.299 15H107.519C107.625 13.08 107.679 11.2667 107.679 9.56002C107.679 7.85335 107.625 6.02669 107.519 4.08002C108.399 4.12002 109.072 4.14002 109.539 4.14002C110.032 4.14002 110.705 4.12002 111.559 4.08002L112.159 7.04002Z" fill="#2400FF"/>
<path d="M105.912 4.08008C105.819 5.76008 105.772 7.57341 105.772 9.52008C105.772 11.4801 105.819 13.3067 105.912 15.0001C105.059 14.9601 104.386 14.9401 103.892 14.9401C103.426 14.9401 102.752 14.9601 101.872 15.0001L101.292 12.0601C100.986 13.1267 100.506 13.9201 99.8523 14.4401C99.199 14.9467 98.439 15.2001 97.5723 15.2001C96.7723 15.2001 96.079 15.0267 95.4923 14.6801C94.9056 14.3201 94.459 13.8401 94.1523 13.2401C93.859 12.6401 93.7123 11.9667 93.7123 11.2201V8.34008C93.7123 6.56674 93.679 5.14674 93.6123 4.08008H98.1123C98.0323 6.04008 97.9923 7.98008 97.9923 9.90008C97.9923 10.4867 98.1323 10.9534 98.4123 11.3001C98.7056 11.6467 99.0723 11.8201 99.5123 11.8201C99.9256 11.8201 100.286 11.6401 100.592 11.2801C100.912 10.9067 101.106 10.4001 101.172 9.76008V9.30008C101.199 8.26008 101.212 7.54008 101.212 7.14008C101.212 6.22008 101.186 5.20008 101.132 4.08008H105.912Z" fill="#2400FF"/>
<path d="M75.1357 13.2801C75.5891 12.6001 75.9624 11.9667 76.2557 11.3801C76.5624 10.7934 76.8557 10.1134 77.1357 9.34008C78.0824 9.88675 79.1824 10.3134 80.4357 10.6201C81.6891 10.9267 82.8557 11.0801 83.9357 11.0801C85.0424 11.0801 85.8224 10.9867 86.2757 10.8001C86.7291 10.6001 86.9557 10.3867 86.9557 10.1601C86.9557 9.34675 85.7157 8.94008 83.2357 8.94008C80.5157 8.94008 78.5424 8.66008 77.3157 8.10008C76.0891 7.52674 75.4757 6.60675 75.4757 5.34008C75.4757 3.54008 76.2224 2.21341 77.7157 1.36008C79.2091 0.506744 81.1491 0.0800781 83.5357 0.0800781C84.9224 0.0800781 86.3424 0.260078 87.7957 0.620078C89.2624 0.966745 90.5824 1.44675 91.7557 2.06008C91.3691 2.94008 90.9624 4.01341 90.5357 5.28008C90.4557 5.54675 90.3891 5.74675 90.3357 5.88008C89.6557 5.33341 88.6291 4.88008 87.2557 4.52008C85.8824 4.14674 84.6691 3.96008 83.6157 3.96008C82.3491 3.96008 81.4957 4.04674 81.0557 4.22008C80.6157 4.38008 80.3957 4.62008 80.3957 4.94008C80.3957 5.26008 80.6957 5.52008 81.2957 5.72008C81.9091 5.90675 82.7891 6.00008 83.9357 6.00008C86.7624 6.00008 88.8157 6.32675 90.0957 6.98008C91.3757 7.62008 92.0157 8.60674 92.0157 9.94008C92.0157 11.8067 91.3357 13.1534 89.9757 13.9801C88.6157 14.7934 86.5557 15.2001 83.7957 15.2001C82.3157 15.2001 80.8091 15.0401 79.2757 14.7201C77.7424 14.3867 76.3624 13.9067 75.1357 13.2801Z" fill="#2400FF"/>
<path d="M68.2328 7.04002C68.7928 5.02669 70.1861 4.02002 72.4128 4.02002C72.7994 4.02002 73.1728 4.04669 73.5328 4.10002L72.8928 8.58002C71.9328 8.22002 71.1461 8.04002 70.5328 8.04002C69.7728 8.04002 69.2128 8.26669 68.8528 8.72002C68.4928 9.17335 68.3128 9.78002 68.3128 10.54V10.52L68.2928 11.84C68.2928 12.7867 68.3194 13.84 68.3728 15H63.5928C63.6994 13.08 63.7528 11.2667 63.7528 9.56002C63.7528 7.85335 63.6994 6.02669 63.5928 4.08002C64.4728 4.12002 65.1461 4.14002 65.6128 4.14002C66.1061 4.14002 66.7794 4.12002 67.6328 4.08002L68.2328 7.04002Z" fill="#FF0000"/>
<path d="M59.6809 9.99988H53.1609C53.2675 10.5866 53.5275 11.0666 53.9409 11.4399C54.3675 11.7999 54.9675 11.9799 55.7409 11.9799C56.3009 11.9799 56.8275 11.8732 57.3209 11.6599C57.8142 11.4332 58.2075 11.1199 58.5009 10.7199C59.3942 11.1599 60.5809 11.6332 62.0609 12.1399C61.6475 13.0732 60.8942 13.8199 59.8009 14.3799C58.7209 14.9265 57.3075 15.1999 55.5609 15.1999C53.2942 15.1999 51.6142 14.6799 50.5209 13.6399C49.4409 12.5865 48.9009 11.2066 48.9009 9.49988C48.9009 7.83322 49.4409 6.47988 50.5209 5.43988C51.6009 4.39988 53.2809 3.87988 55.5609 3.87988C56.9209 3.87988 58.1009 4.10655 59.1009 4.55988C60.1009 5.01322 60.8675 5.64655 61.4009 6.45988C61.9342 7.25988 62.2009 8.17988 62.2009 9.21988C62.2009 9.56655 62.1875 9.82655 62.1609 9.99988H59.6809ZM55.8409 6.89988C55.1742 6.89988 54.6275 7.02655 54.2009 7.27988C53.7742 7.53322 53.4742 7.87988 53.3009 8.31988H58.0209C57.8609 7.89322 57.6009 7.55322 57.2409 7.29988C56.8809 7.03322 56.4142 6.89988 55.8409 6.89988Z" fill="#FF0000"/>
<path d="M43.5992 11.9201L45.3192 4.08008H49.2992L47.0792 15.0001H41.7392L40.4792 9.90008L39.0592 15.0001H33.9192L31.6992 4.08008H35.6792L37.3792 11.9001L38.5392 4.08008H42.4792L43.5992 11.9201Z" fill="#FF0000"/>
<path d="M25.0135 15.1999C22.7335 15.1999 21.0535 14.6799 19.9735 13.6399C18.9069 12.5865 18.3735 11.2066 18.3735 9.49988C18.3735 7.83322 18.9069 6.47988 19.9735 5.43988C21.0535 4.39988 22.7335 3.87988 25.0135 3.87988C26.5469 3.87988 27.8269 4.13322 28.8535 4.63988C29.8935 5.13322 30.6602 5.80655 31.1535 6.65988C31.6469 7.49988 31.8935 8.44655 31.8935 9.49988C31.8935 11.2199 31.3202 12.5999 30.1735 13.6399C29.0402 14.6799 27.3202 15.1999 25.0135 15.1999ZM25.0935 11.7999C25.9602 11.7999 26.6069 11.5932 27.0335 11.1799C27.4602 10.7666 27.6735 10.2132 27.6735 9.51988C27.6735 8.86655 27.4602 8.33322 27.0335 7.91988C26.6069 7.49322 25.9602 7.27988 25.0935 7.27988C24.2269 7.27988 23.5935 7.48655 23.1935 7.89988C22.7935 8.31322 22.5935 8.85322 22.5935 9.51988C22.5935 10.2132 22.7935 10.7666 23.1935 11.1799C23.5935 11.5932 24.2269 11.7999 25.0935 11.7999Z" fill="#FF0000"/>
<path d="M9.8798 0.499981C12.5331 0.499981 14.3798 0.973314 15.4198 1.91998C16.4598 2.85331 16.9798 4.17331 16.9798 5.87998C16.9798 7.05331 16.7731 8.05331 16.3598 8.87998C15.9465 9.69331 15.2198 10.3333 14.1798 10.8C13.1398 11.2533 11.7065 11.48 9.8798 11.48H5.7198V15H0.799805C0.906471 12.4133 0.959805 9.99331 0.959805 7.73998C0.959805 5.48665 0.906471 3.06665 0.799805 0.47998H5.7198V0.499981H9.8798ZM8.4798 7.61998C9.58647 7.61998 10.4131 7.57998 10.9598 7.49998C11.5198 7.40665 11.9065 7.24665 12.1198 7.01998C12.3465 6.79331 12.4598 6.45998 12.4598 6.01998C12.4598 5.57998 12.3531 5.25331 12.1398 5.03998C11.9398 4.81331 11.5598 4.65998 10.9998 4.57998C10.4531 4.49998 9.61314 4.45998 8.4798 4.45998H5.7198V7.61998H8.4798Z" fill="#FF0000"/>
</svg>
